Coordinates
version=1
nRows=13
nColumns=22
inDegrees=yes

Units are S.I. units (second, meters, Newtons, ...)
If the header above contains a line with 'inDegrees', this indicates whether rotational values are in degrees (yes) or radians (no).

endheader
time	pelvis_tilt	pelvis_list	pelvis_rotation	pelvis_tx	pelvis_ty	pelvis_tz	hip_flexion_r	hip_adduction_r	hip_rotation_r	knee_angle_r	ankle_angle_r	subtalar_angle_r	hip_flexion_l	hip_adduction_l	hip_rotation_l	knee_angle_l	ankle_angle_l	subtalar_angle_l	lumbar_extension	lumbar_bending	lumbar_rotation
      0.01000000	     -8.33086864	      0.50150266	    -30.20860982	     -1.56324192	      0.88322973	     -0.49199192	     10.23534978	     -0.27268538	     -2.04646023	    -11.38536401	     13.28729733	      1.44003467	     10.32826894	     -8.20869877	     -6.06840763	    -18.77991116	     18.77188568	      5.78863120	      2.69692157	      2.81692159	     13.77109719
      0.02000000	     -8.33691358	      0.51163391	    -30.23748931	     -1.56310895	      0.88321824	     -0.49195015	     10.24085142	     -0.27944778	     -2.04052124	    -11.38417947	     13.29098869	      1.43913609	     10.30727227	     -8.20015158	     -6.09417382	    -18.75140325	     18.77334493	      5.79485974	      2.71470517	      2.79871602	     13.74087343
      0.03000000	     -8.33041330	      0.54041570	    -30.28614699	     -1.56296536	      0.88321900	     -0.49186097	     10.23943792	     -0.30405215	     -1.98366746	    -11.37468512	     13.29479392	      1.43802511	     10.27360841	     -8.17207778	     -6.15767836	    -18.71733964	     18.75995454	      5.82098215	      2.73402293	      2.74831927	     13.74989424
      0.04000000	     -8.34112540	      0.54334583	    -30.31232828	     -1.56282192	      0.88321383	     -0.49181181	     10.24144201	     -0.30046304	     -1.97220490	    -11.36968307	     13.29240637	      1.43821964	     10.25610730	     -8.17390956	     -6.18778791	    -18.69458974	     18.76425507	      5.82481925	      2.75140133	      2.73292930	     13.70856547
      0.05000000	     -8.35258812	      0.55055333	    -30.34231066	     -1.56268522	      0.88321034	     -0.49176511	     10.24359848	     -0.29996255	     -1.95617302	    -11.35587355	     13.28736199	      1.43859667	     10.24109684	     -8.17197489	     -6.22043290	    -18.67237671	     18.76706513	      5.82861839	      2.76927173	      2.71343581	     13.67190595
      0.06000000	     -8.36440342	      0.55973261	    -30.37058613	     -1.56255049	      0.88320908	     -0.49170719	     10.24480611	     -0.30013194	     -1.93421387	    -11.33971530	     13.27932738	      1.43949938	     10.22592226	     -8.16983175	     -6.25724007	    -18.64703240	     18.76771459	      5.83271413	      2.78946966	      2.68781545	     13.63609067
      0.07000000	     -8.37591797	      0.56916277	    -30.39783131	     -1.56241972	      0.88321001	     -0.49165423	     10.24509289	     -0.30143745	     -1.91228320	    -11.32157656	     13.27009921	      1.44121917	     10.21075448	     -8.16721171	     -6.29308838	    -18.62071096	     18.76622972	      5.83683252	      2.80900551	      2.66053418	     13.60300677
      0.08000000	     -8.38635071	      0.57739865	    -30.42038559	     -1.56228489	      0.88321306	     -0.49160287	     10.24191873	     -0.30301516	     -1.89250229	    -11.30184776	     13.26021440	      1.44429980	     10.19432536	     -8.16485378	     -6.32612912	    -18.59361237	     18.76293504	      5.84100972	      2.82835275	      2.63093387	     13.57459223
      0.09000000	     -8.39676606	      0.58356139	    -30.44125944	     -1.56215189	      0.88321679	     -0.49156243	     10.23739380	     -0.30340548	     -1.88056824	    -11.28058860	     13.25189857	      1.44837027	     10.17687804	     -8.16276321	     -6.35365364	    -18.56522632	     18.76038043	      5.84418905	      2.84447839	      2.60402014	     13.54622121
      0.10000000	     -8.40637968	      0.58863577	    -30.45758519	     -1.56200639	      0.88322145	     -0.49152465	     10.22792026	     -0.30448418	     -1.87104130	    -11.25573595	     13.24278525	      1.45431380	     10.15582845	     -8.16051974	     -6.38024516	    -18.53126791	     18.75769877	      5.84702042	      2.86177268	      2.57633454	     13.52017560
      0.11000000	     -8.41503356	      0.59260043	    -30.47362001	     -1.56185704	      0.88322681	     -0.49149569	     10.21591336	     -0.30598517	     -1.86377128	    -11.22867786	     13.23368944	      1.46189238	     10.13139668	     -8.15750216	     -6.40419920	    -18.49380756	     18.75573994	      5.84925566	      2.87751413	      2.55055739	     13.49758324
      0.12000000	     -8.40371536	      0.59731067	    -30.49642750	     -1.56169725	      0.88326527	     -0.49146324	     10.17379144	     -0.31795411	     -1.83373865	    -11.17881744	     13.20868834	      1.48866281	     10.07797533	     -8.14122653	     -6.42897937	    -18.43999870	     18.73923627	      5.85489204	      2.87494574	      2.51262422	     13.50062986
      0.13000000	     -8.41622703	      0.59605708	    -30.51101722	     -1.56154929	      0.88326056	     -0.49146227	     10.17061931	     -0.31500828	     -1.83726079	    -11.16697436	     13.21010962	      1.49353563	     10.05822755	     -8.14385831	     -6.45171763	    -18.40811442	     18.74683142	      5.85439106	      2.89060288	      2.50074510	     13.47093120
